<?xml version="1.0" encoding="utf-8"?>
<!-- Generator: Adobe Illustrator 19.0.0, SVG Export Plug-In . SVG Version: 6.00 Build 0)  -->
<svg version="1.1" id="Layer_1" xmlns="http://www.w3.org/2000/svg" xmlns:xlink="http://www.w3.org/1999/xlink" x="0px" y="0px"
	 viewBox="-758 405.5 402 271.5" style="enable-background:new -758 405.5 402 271.5;" xml:space="preserve">
<style type="text/css">
	.st0{fill:#FFCE04;}
	.st1{fill:#EC2227;}
	.st2{fill:#214497;}
	.st3{fill:#FFFFFF;}
</style>
<g id="XMLID_77_">
	<path class="st0" d="M-375,464.4l-83.6-22.4c-1.1-0.3-2.2-0.4-3.3-0.4c-5.6,0-10.7,3.7-12.3,9.4l-19.5,72.7v56.2
		c0,4.4-1.5,8.5-4.1,11.7l82.8,22.2c1.1,0.3,2.2,0.4,3.3,0.4c5.6,0,10.7-3.7,12.3-9.4l33.4-124.8
		C-364.3,473.2-368.3,466.2-375,464.4z M-383.5,490.9l-3.6,13.5c-0.6,2.4-2.8,4-5.2,4c-0.5,0-0.9-0.1-1.4-0.2l-22.2-6l-20.6,76.9
		c-0.6,2.4-2.8,4-5.2,4c-0.5,0-0.9-0.1-1.4-0.2l-15.8-4.2c-2.9-0.8-4.6-3.8-3.8-6.6l20.6-76.9l-22.2-6c-2.9-0.8-4.6-3.8-3.8-6.6
		l3.6-13.5c0.6-2.4,2.8-4,5.2-4c0.5,0,0.9,0,1.4,0.2l70.8,19C-384.4,485.1-382.7,488-383.5,490.9z"/>
</g>
<g id="XMLID_75_">
	<path class="st1" d="M-512.4,437.9H-599c-7,0-12.7,5.7-12.7,12.7v72.9l13.6,50.7c1.8,6.5-0.2,13.2-4.5,17.7
		c1.1,0.4,2.4,0.5,3.6,0.5h86.6c1.2,0,2.4-0.2,3.5-0.5h0c1-0.3,2-0.7,3-1.3c0.9-0.5,1.7-1.2,2.4-1.9c2.3-2.3,3.8-5.5,3.8-9V450.6
		C-499.7,443.6-505.4,437.9-512.4,437.9z M-518.2,478.4c0,3-2.4,5.4-5.4,5.4h-43v17.6h42.3c3,0,5.4,2.4,5.4,5.4V519
		c0,3-2.4,5.4-5.4,5.4h-42.3v21.3h43c3,0,5.4,2.4,5.4,5.4v13.5c0,3-2.4,5.4-5.4,5.4h-64.1c-3,0-5.4-2.4-5.4-5.4v-99
		c0-3,2.4-5.4,5.4-5.4h64.1c3,0,5.4,2.4,5.4,5.4V478.4z"/>
</g>
<g id="XMLID_70_">
	<path class="st2" d="M-603.9,575.8l-7.8-29.1l-3-11.2l-3-11.2l-19.7-73.3c-1.5-5.7-6.7-9.4-12.3-9.4c-1.1,0-2.2,0.1-3.3,0.4
		l-83.6,22.4c-6.8,1.8-10.8,8.8-9,15.5l33.4,124.8c1.5,5.7,6.6,9.4,12.3,9.4c1.1,0,2.2-0.1,3.3-0.4l83-22.2l0.7-0.2
		c0.8-0.2,1.6-0.5,2.4-0.9c0.9-0.5,1.8-1,2.5-1.7C-604.3,585.7-602.5,580.7-603.9,575.8z M-628.8,553.9c-0.8,4.3-2.5,8.3-4.9,12
		c-2.4,3.7-5.6,7-9.5,9.8c-3.9,2.8-8.5,5-13.7,6.4c-4.4,1.2-8.6,2-12.3,2.5c-2.3,0.3-4.6,0.4-6.9,0.4c-1.4,0-2.8,0-4.2-0.2
		c-3.5-0.3-7-0.9-10.5-2c-2.7-0.8-5.5-1.8-8.6-3.1c-1.4-0.6-2.5-1.8-3-3.3c-0.5-1.5-0.4-3.1,0.4-4.4l8-14.1c1-1.7,2.8-2.7,4.7-2.7
		c0.7,0,1.4,0.1,2.1,0.4c3.9,1.7,7.6,2.7,10.9,2.9c0.8,0.1,1.7,0.1,2.5,0.1c3,0,6.1-0.4,9.3-1.3c1.5-0.4,2.8-1,3.9-1.7
		c1.1-0.8,2.1-1.6,2.8-2.5c0.7-0.8,1.1-1.8,1.4-2.7c0.2-0.8,0.2-1.7,0-2.6c-0.3-1.1-0.7-2-1.3-2.6c-0.6-0.7-1.5-1.3-2.8-1.8
		c-1.5-0.7-3.7-1.2-6.4-1.7c-2.9-0.5-6.6-0.9-11-1.3c-4.1-0.3-8.2-0.9-12.1-1.8c-4.1-0.9-8-2.3-11.4-4.1c-3.6-2-6.7-4.5-9.4-7.6
		c-2.7-3.2-4.8-7.3-6.1-12.2c-1.3-4.7-1.5-9.4-0.7-13.9c0.8-4.5,2.5-8.6,5.1-12.3c2.5-3.7,5.7-6.9,9.6-9.6c3.9-2.7,8.3-4.7,13.3-6
		c6.2-1.7,11.9-2.5,17-2.5c1.5,0,2.9,0.1,4.3,0.2c5.4,0.5,10.7,2,15.5,4.3c1.4,0.7,2.4,1.9,2.8,3.3s0.3,3-0.5,4.3l-7.9,13.8
		c-1,1.7-2.8,2.7-4.7,2.7c-0.8,0-1.6-0.2-2.3-0.5c-2.3-1.1-4.7-1.8-7.2-2.2c-0.8-0.1-1.7-0.2-2.6-0.2c-2.3,0-4.7,0.3-7.3,1.1
		c-1.5,0.4-2.8,1-3.9,1.8c-1.1,0.8-2,1.7-2.7,2.6c-0.7,0.9-1.1,1.8-1.3,2.9c-0.2,0.9-0.2,1.8,0,2.6c0.3,1,0.7,1.9,1.4,2.6
		c0.6,0.7,1.7,1.4,3.1,2c1.6,0.7,3.8,1.3,6.5,1.7c2.8,0.5,6.3,0.9,10.5,1.3c5.6,0.4,10.6,1.2,15,2.4c4.4,1.2,8.3,2.9,11.5,5
		c3.3,2.1,6.1,4.8,8.2,8c2.1,3.1,3.8,6.9,4.9,11.1C-628.1,545.3-628,549.6-628.8,553.9z"/>
</g></svg>
